<?xml version="1.0" standalone="no"?><!DOCTYPE svg PUBLIC "-//W3C//DTD SVG 1.1//EN" "http://www.w3.org/Graphics/SVG/1.1/DTD/svg11.dtd"><svg t="1545981605619" class="icon" style="" viewBox="0 0 1024 1024" version="1.1" xmlns="http://www.w3.org/2000/svg" p-id="2301" xmlns:xlink="http://www.w3.org/1999/xlink" width="200" height="200"><defs><style type="text/css"></style></defs><path d="M974.933333 422.4 563.2 46.933333c-27.733333-23.466667-76.8-29.866667-113.066667 4.266667L38.4 426.666667c-4.266667 6.4-21.333333 29.866667-21.333333 53.333333 0 40.533333 27.733333 70.4 66.133333 76.8l0 371.2c0 42.666667 38.4 78.933333 83.2 78.933333l168.533333 0c8.533333 0 36.266667-2.133333 59.733333-23.466667 17.066667-14.933333 25.6-36.266667 25.6-61.866667l0-108.8c0 0 0-2.133333 0-2.133333 36.266667-6.4 157.866667-4.266667 174.933333 2.133333l0 106.666667c0 23.466667 8.533333 46.933333 25.6 61.866667 23.466667 21.333333 51.2 23.466667 59.733333 23.466667l168.533333 0c27.733333 0 51.2-10.666667 66.133333-32 10.666667-14.933333 17.066667-34.133333 17.066667-53.333333l0-362.666667c40.533333-8.533333 66.133333-40.533333 66.133333-78.933333C1000.533333 458.666667 992 439.466667 974.933333 422.4zM836.266667 480l0 428.8-140.8 0 0-157.866667L637.866667 725.333333c-12.8-6.4-34.133333-14.933333-140.8-14.933333-40.533333 0-72.533333 2.133333-91.733333 6.4l-74.666667 12.8-6.4 78.933333 0 100.266667L183.466667 908.8l0-433.066667-42.666667-8.533333L509.866667 130.133333l373.333333 341.333333L836.266667 480z" p-id="2302"></path></svg>