<?xml version="1.0" standalone="no"?><!DOCTYPE svg PUBLIC "-//W3C//DTD SVG 1.1//EN" "http://www.w3.org/Graphics/SVG/1.1/DTD/svg11.dtd"><svg t="1545984528320" class="icon" style="" viewBox="0 0 1024 1024" version="1.1" xmlns="http://www.w3.org/2000/svg" p-id="3017" xmlns:xlink="http://www.w3.org/1999/xlink" width="200" height="200"><defs><style type="text/css"></style></defs><path d="M661.637 917.74c-16.276-0.006-32.107-6.728-42.317-18.008-13.921-15.262-58.03-54.952-94.141-54.952-35.855 0-80.645 39.92-93.512 53.898-10.194 11.09-25.902 17.7-42.02 17.7-7.68 0-14.924-1.47-21.54-4.373l-1.157-0.507-109.747-61.368-1.09-0.763c-19.973-13.983-27.577-41.344-17.68-63.636 0.077-0.164 10.128-23.353 10.128-44.488 0-64.138-52.189-116.337-116.337-116.337h-3.886l-0.707 0.016c-18.375 0-33.336-16.323-38.123-41.59-0.379-2.023-9.36-49.936-9.36-87.685 0-37.755 8.976-85.673 9.36-87.696 4.838-25.584 20.127-42.014 38.825-41.574h3.891c64.143 0 116.337-52.188 116.337-116.332 0-21.13-10.04-44.313-10.148-44.544-9.892-22.266-2.238-49.617 17.833-63.56l1.136-0.788 115.815-63.626 1.208-0.512c6.523-2.78 13.665-4.188 21.233-4.188 16.087 0 31.82 6.472 42.112 17.316 13.711 14.351 57.037 51.681 92.114 51.681 34.739 0 77.803-36.593 91.468-50.693 10.23-10.619 25.862-16.983 41.78-16.983 7.72 0 14.996 1.464 21.632 4.342l1.172 0.512 111.862 62.146 1.111 0.773c20.014 13.968 27.633 41.324 17.73 63.627-0.071 0.168-10.127 23.357-10.127 44.492 0 64.144 52.188 116.332 116.337 116.332h3.891c18.678-0.415 33.981 15.99 38.825 41.574 0.384 2.028 9.36 49.936 9.36 87.69s-8.976 85.673-9.365 87.69c-4.839 25.585-20.147 41.954-38.825 41.57h-3.886c-64.144 0-116.337 52.193-116.337 116.342 0 21.13 10.046 44.303 10.143 44.534 9.881 22.256 2.242 49.612-17.792 63.564l-1.116 0.789-113.756 62.868-1.183 0.512c-6.518 2.816-13.63 4.235-21.15 4.235z m-3.456-53.592c0.512 0.328 1.95 0.896 3.456 0.896l0.174-0.005 106.276-58.741c-2.565-5.955-14.295-34.883-14.295-65.05 0-90.23 71.066-164.178 160.169-168.801 1.28-7.081 8.238-46.92 8.238-76.8s-6.958-69.699-8.238-76.8c-89.098-4.629-160.169-78.572-160.169-168.802 0-30.213 11.77-59.177 14.31-65.09l-104.555-58.087c-0.118-0.005-0.271-0.015-0.44-0.015-1.782 0-3.446 0.65-3.994 1.024-1.761 1.807-16.911 17.173-38.682 32.487-32.23 22.666-62.7 34.165-90.578 34.165-28.14 0-58.86-11.725-91.29-34.841-21.903-15.611-37.13-31.273-38.89-33.111-0.559-0.38-2.243-1.045-4.04-1.045a7.987 7.987 0 0 0-0.374 0.01l-108.298 59.48c2.595 6.03 14.284 34.908 14.284 65.023 0 90.225-71.065 164.173-160.169 168.802-1.28 7.086-8.238 46.914-8.238 76.8 0 29.88 6.958 69.698 8.249 76.795 89.093 4.628 160.158 78.581 160.158 168.806 0 30.275-11.811 59.284-14.325 65.126l102.502 57.314c0.062 0.01 0.143 0.01 0.23 0.01 1.496 0 2.914-0.548 3.42-0.876 1.92-2.058 17.224-18.263 39.276-34.432 32.865-24.09 64.103-36.3 92.83-36.3 29.01 0 60.483 12.446 93.543 36.997 22.18 16.46 37.55 32.973 39.46 35.061zM525.558 649.984c-85.427 0-154.926-69.504-154.926-154.926 0-85.427 69.499-154.926 154.926-154.926 85.427 0 154.931 69.499 154.931 154.926 0 85.422-69.51 154.926-154.931 154.926z m0-257.157c-56.371 0-102.226 45.86-102.226 102.226 0 56.376 45.86 102.236 102.226 102.236s102.23-45.86 102.23-102.236c0-56.366-45.859-102.226-102.23-102.226z" p-id="3018"></path></svg>